<?xml version="1.0" standalone="no"?>
<!DOCTYPE svg PUBLIC "-//W3C//DTD SVG 20010904//EN"
 "http://www.w3.org/TR/2001/REC-SVG-20010904/DTD/svg10.dtd">
<svg version="1.0" xmlns="http://www.w3.org/2000/svg"
 width="2084.000000pt" height="2084.000000pt" viewBox="0 0 2084.000000 2084.000000"
 preserveAspectRatio="xMidYMid meet">
<metadata>
Created by potrace 1.11, written by Peter Selinger 2001-2013
</metadata>
<g transform="translate(0.000000,2084.000000) scale(0.100000,-0.100000)"
fill="#000000" stroke="none">
<path d="M16395 20330 c-948 -96 -1770 -550 -2325 -1286 -240 -317 -423 -683
-533 -1064 -89 -307 -121 -544 -121 -890 0 -422 53 -729 190 -1108 229 -630
668 -1196 1219 -1571 457 -311 987 -505 1540 -562 150 -15 505 -15 645 0 793
89 1494 426 2030 977 483 497 784 1109 890 1809 27 179 38 539 21 721 -115
1264 -924 2331 -2103 2773 -240 90 -477 149 -740 187 -134 18 -579 27 -713 14z"/>
<path d="M12705 16304 c-33 -8 -1489 -341 -3235 -740 -1746 -399 -3183 -727
-3193 -730 -24 -7 -39 9 266 -287 l248 -240 3019 994 c1661 547 3018 999 3016
1004 -4 15 -55 15 -121 -1z"/>
<path d="M3425 15749 c-670 -62 -1278 -345 -1744 -810 -428 -428 -691 -955
-788 -1579 -25 -160 -25 -586 -1 -747 95 -623 365 -1164 792 -1588 249 -247
522 -433 849 -579 379 -169 776 -245 1216 -233 288 8 505 44 769 129 948 302
1665 1082 1876 2038 51 234 61 327 61 600 -1 345 -33 561 -130 855 -338 1029
-1217 1755 -2301 1900 -145 20 -463 27 -599 14z"/>
<path d="M14952 13539 c3 -9 88 -289 188 -625 101 -335 185 -612 189 -616 5
-6 1293 -219 1298 -214 8 6 663 1078 663 1084 0 4 -514 90 -1142 191 -629 101
-1156 186 -1172 189 -23 4 -28 2 -24 -9z"/>
<path d="M14601 9372 c-377 -1516 -685 -2765 -685 -2774 -1 -11 214 -202 582
-517 l583 -500 77 33 c42 18 352 149 687 291 336 142 611 259 613 261 7 5 129
5749 123 5755 -6 6 -1250 209 -1281 209 -12 0 -169 -620 -699 -2758z"/>
<path d="M5912 10335 c4 -41 6499 -6182 6510 -6157 4 9 46 222 93 472 47 250
88 460 90 467 3 10 -6656 5231 -6686 5242 -6 2 -9 -8 -7 -24z"/>
<path d="M14620 5080 c-793 -86 -1485 -563 -1837 -1265 -97 -193 -168 -413
-215 -660 -31 -163 -33 -550 -5 -720 104 -621 414 -1137 902 -1505 631 -474
1481 -591 2222 -304 687 265 1201 835 1397 1549 56 203 77 369 77 604 0 368
-74 689 -237 1021 -335 683 -980 1153 -1739 1266 -122 18 -449 26 -565 14z"/>
</g>
</svg>
