<?xml version="1.0" encoding="UTF-8" standalone="no"?>
<!-- Created with Inkscape (http://www.inkscape.org/) -->

<svg
   xmlns:dc="http://purl.org/dc/elements/1.1/"
   xmlns:cc="http://creativecommons.org/ns#"
   xmlns:rdf="http://www.w3.org/1999/02/22-rdf-syntax-ns#"
   xmlns:svg="http://www.w3.org/2000/svg"
   xmlns="http://www.w3.org/2000/svg"
   xmlns:sodipodi="http://sodipodi.sourceforge.net/DTD/sodipodi-0.dtd"
   xmlns:inkscape="http://www.inkscape.org/namespaces/inkscape"
   id="svg3390"
   version="1.1"
   inkscape:version="0.91 r13725"
   xml:space="preserve"
   width="572.46338"
   height="595.92975"
   viewBox="0 0 572.46337 595.92975"
   sodipodi:docname="Visage_white_logo.svg"><metadata
     id="metadata3396"><rdf:RDF><cc:Work
         rdf:about=""><dc:format>image/svg+xml</dc:format><dc:type
           rdf:resource="http://purl.org/dc/dcmitype/StillImage" /><dc:title></dc:title></cc:Work></rdf:RDF></metadata><defs
     id="defs3394" /><sodipodi:namedview
     pagecolor="#ffffff"
     bordercolor="#666666"
     borderopacity="1"
     objecttolerance="10"
     gridtolerance="10"
     guidetolerance="10"
     inkscape:pageopacity="0"
     inkscape:pageshadow="2"
     inkscape:window-width="1427"
     inkscape:window-height="754"
     id="namedview3392"
     showgrid="false"
     inkscape:zoom="0.5787552"
     inkscape:cx="166.43241"
     inkscape:cy="279.86796"
     inkscape:window-x="1504"
     inkscape:window-y="0"
     inkscape:window-maximized="0"
     inkscape:current-layer="g3398"
     fit-margin-top="0"
     fit-margin-left="-0.1"
     fit-margin-right="0"
     fit-margin-bottom="0" /><g
     id="g3398"
     inkscape:groupmode="layer"
     inkscape:label="Visage"
     transform="matrix(1.25,0,0,-1.25,-27.880869,1074.1064)"><g
       id="g4156"><g
         style="fill:none;stroke:none"
         transform="translate(357.71019,391.54154)"
         id="g3426"><path
           inkscape:connector-curvature="0"
           id="path3428"
           style="fill:none;fill-opacity:1;fill-rule:evenodd;stroke:none"
           d="m 0,0 c -5.862,0 -11.625,1.107 -17.129,3.291 -11.521,4.572 -20.57,13.35 -25.479,24.716 -4.909,11.362 -5.092,23.953 -0.518,35.452 7.067,17.765 24.003,29.242 43.146,29.242 5.861,0 11.624,-1.107 17.127,-3.291 C 28.669,84.838 37.718,76.061 42.627,64.694 47.535,53.332 47.719,40.741 43.145,29.242 36.078,11.478 19.143,0 0.002,0 L 0,0 Z" /></g><g
         style="fill:none;stroke:none"
         transform="translate(401.74239,710.80864)"
         id="g3434"><path
           inkscape:connector-curvature="0"
           id="path3436"
           style="fill:none;fill-opacity:1;fill-rule:evenodd;stroke:none"
           d="m 0,0 c -8.975,0 -17.794,1.686 -26.213,5.008 -17.684,6.98 -31.55,20.389 -39.04,37.756 -7.432,17.23 -7.687,36.312 -0.72,53.732 10.807,27.021 36.715,44.481 66.002,44.481 8.974,0 17.792,-1.685 26.213,-5.009 17.685,-6.98 31.55,-20.388 39.041,-37.755 C 72.714,80.982 72.97,61.9 66.003,44.481 55.195,17.46 29.288,0 0.004,0 L 0,0 Z" /></g><g
         style="fill:none;stroke:none"
         transform="translate(89.222894,626.77244)"
         id="g3442"><path
           inkscape:connector-curvature="0"
           id="path3444"
           style="fill:none;fill-opacity:1;fill-rule:evenodd;stroke:none"
           d="m 0,0 c -7.142,0 -14.163,1.341 -20.868,3.985 -14.077,5.552 -25.11,16.214 -31.065,30.021 -5.9,13.68 -6.101,28.83 -0.565,42.659 8.598,21.481 29.218,35.361 52.531,35.361 7.142,0 14.163,-1.341 20.868,-3.985 C 34.978,102.489 46.01,91.828 51.965,78.02 57.866,64.34 58.066,49.189 52.531,35.361 43.933,13.881 23.312,0 0.001,0 L 0,0 Z" /></g><g
         style="fill:#ffffff"
         id="g4165"><g
           id="g3410"
           transform="translate(143.16769,619.85404)"
           style="fill:#ffffff;fill-opacity:1;stroke:none"><path
             d="m 0,0 -0.004,-1.033 156.149,-147.643 4.404,23.079 L 0,0 Z"
             style="fill:#ffffff;fill-opacity:1;fill-rule:evenodd;stroke:none"
             id="path3412"
             inkscape:connector-curvature="0" /></g><g
           id="g3414"
           transform="translate(308.57909,762.86664)"
           style="fill:#ffffff;fill-opacity:1;stroke:none"><path
             d="M 0,0 -156.896,-35.839 -144.334,-48.201 0.643,-0.433 0,0 Z"
             style="fill:#ffffff;fill-opacity:1;fill-rule:evenodd;stroke:none"
             id="path3416"
             inkscape:connector-curvature="0" /></g><g
           id="g3430"
           transform="translate(357.73009,493.24334)"
           style="fill:#ffffff;fill-opacity:1;stroke:none"><path
             d="m 0,0 c -22.039,0 -42.876,-13.218 -51.508,-34.916 -11.299,-28.401 2.598,-60.574 31.04,-71.86 6.713,-2.664 13.638,-3.926 20.447,-3.926 22.039,0 42.876,13.218 51.508,34.916 11.299,28.401 -2.598,60.573 -31.04,71.86 C 13.734,-1.262 6.809,0 0,0 m 0,-18 c 4.719,0 9.364,-0.894 13.808,-2.657 9.287,-3.686 16.581,-10.76 20.537,-19.919 3.954,-9.152 4.102,-19.294 0.417,-28.557 -5.696,-14.318 -19.349,-23.57 -34.783,-23.57 -4.719,0 -9.365,0.895 -13.808,2.658 -9.287,3.685 -16.581,10.759 -20.537,19.918 -3.954,9.153 -4.102,19.295 -0.417,28.557 C -29.087,-27.252 -15.434,-18 0,-18"
             style="fill:#ffffff;fill-opacity:1;fill-rule:nonzero;stroke:none"
             id="path3432"
             inkscape:connector-curvature="0" /></g><g
           id="g3438"
           transform="translate(401.77209,859.28514)"
           style="fill:#ffffff;fill-opacity:1;stroke:none"><path
             d="m 0,0 c -31.22,0 -60.739,-18.624 -72.966,-49.196 -16.006,-40.016 3.68,-85.347 43.97,-101.249 9.51,-3.753 19.321,-5.532 28.966,-5.532 31.221,0 60.739,18.624 72.967,49.196 C 88.942,-66.765 69.256,-21.434 28.965,-5.532 19.456,-1.779 9.645,0 0,0 m 0,-15 c 8.027,0 15.919,-1.509 23.458,-4.485 15.817,-6.242 28.214,-18.228 34.909,-33.75 6.635,-15.384 6.863,-32.422 0.642,-47.976 -4.78,-11.95 -12.979,-22.021 -23.711,-29.123 -10.521,-6.963 -22.737,-10.643 -35.328,-10.643 -8.026,0 -15.919,1.509 -23.459,4.485 -15.816,6.242 -28.213,18.228 -34.907,33.749 -6.636,15.385 -6.864,32.423 -0.643,47.977 4.78,11.95 12.979,22.021 23.711,29.123 C -24.806,-18.68 -12.59,-15 0,-15"
             style="fill:#ffffff;fill-opacity:1;fill-rule:nonzero;stroke:none"
             id="path3440"
             inkscape:connector-curvature="0" /></g><g
           id="g3446"
           transform="translate(89.256094,749.29814)"
           style="fill:#ffffff;fill-opacity:1;stroke:none"><path
             d="m 0,0 c -26.646,0 -51.842,-15.885 -62.28,-41.959 -13.661,-34.129 3.14,-72.789 37.527,-86.35 8.116,-3.2 16.487,-4.717 24.719,-4.717 26.646,0 51.843,15.886 62.28,41.959 13.661,34.129 -3.14,72.789 -37.527,86.35 C 16.603,-1.516 8.232,0 0,0 m 0,-21 c 5.817,0 11.542,-1.094 17.015,-3.253 11.459,-4.519 20.435,-13.188 25.276,-24.412 4.785,-11.095 4.948,-23.382 0.459,-34.598 -3.457,-8.634 -9.386,-15.911 -17.149,-21.044 -7.636,-5.05 -16.501,-7.718 -25.635,-7.718 -5.817,0 -11.542,1.094 -17.015,3.252 -11.458,4.519 -20.435,13.189 -25.276,24.412 -4.785,11.096 -4.948,23.382 -0.459,34.598 3.457,8.634 9.387,15.912 17.149,21.044 C -17.999,-23.669 -9.134,-21 0,-21"
             style="fill:#ffffff;fill-opacity:1;fill-rule:nonzero;stroke:none"
             id="path3448"
             inkscape:connector-curvature="0" /></g><g
           id="g3450"
           transform="translate(368.25119,662.28664)"
           style="fill:#ffffff;fill-opacity:1;stroke:none"><path
             d="m 0,0 -33,-133 28,-24 33,14 3,138 -31,5 z"
             style="fill:#ffffff;fill-opacity:1;fill-rule:evenodd;stroke:none"
             id="path3452"
             inkscape:connector-curvature="0" /></g><g
           id="g3454"
           transform="translate(360.25119,696.28664)"
           style="fill:#ffffff;fill-opacity:1;stroke:none"><path
             d="M 0,0 9,-30 40,-35 56,-9 0,0 Z"
             style="fill:#ffffff;fill-opacity:1;fill-rule:evenodd;stroke:none"
             id="path3456"
             inkscape:connector-curvature="0" /></g><g
           id="g3458"
           transform="translate(367.78609,814.20914)"
           style="fill:#ffffff;fill-opacity:1;stroke:none"><path
             d="m 0,0 c -10.369,-10.911 -14.923,-24.897 -13.615,-37.718 3.806,11.669 10.314,22.861 19.538,32.577 8.988,9.447 19.56,16.439 30.758,20.944 C 23.827,16.126 10.229,10.763 0,0"
             style="fill:#ffffff;fill-opacity:1;fill-rule:evenodd;stroke:none"
             id="path3460"
             inkscape:connector-curvature="0" /></g></g></g></g></svg>