<?xml version="1.0" encoding="UTF-8" standalone="no"?>
<!-- Created with Inkscape (http://www.inkscape.org/) -->

<svg
   xmlns:dc="http://purl.org/dc/elements/1.1/"
   xmlns:cc="http://creativecommons.org/ns#"
   xmlns:rdf="http://www.w3.org/1999/02/22-rdf-syntax-ns#"
   xmlns:svg="http://www.w3.org/2000/svg"
   xmlns="http://www.w3.org/2000/svg"
   xmlns:xlink="http://www.w3.org/1999/xlink"
   xmlns:sodipodi="http://sodipodi.sourceforge.net/DTD/sodipodi-0.dtd"
   xmlns:inkscape="http://www.inkscape.org/namespaces/inkscape"
   id="svg3390"
   version="1.1"
   inkscape:version="0.91 r13725"
   xml:space="preserve"
   width="2017.9913"
   height="595.92975"
   viewBox="0 0 2017.9913 595.92975"
   sodipodi:docname="Visage_logo_horizontal.svg"><metadata
     id="metadata3396"><rdf:RDF><cc:Work
         rdf:about=""><dc:format>image/svg+xml</dc:format><dc:type
           rdf:resource="http://purl.org/dc/dcmitype/StillImage" /><dc:title></dc:title></cc:Work></rdf:RDF></metadata><defs
     id="defs3394"><mask
       maskUnits="userSpaceOnUse"
       x="0"
       y="0"
       width="1"
       height="1"
       id="mask3404"><image
         width="1"
         height="1"
         preserveAspectRatio="none"
         xlink:href="file:///Users/manu/Downloads/Visage_img0.png"
         id="image3406"
         sodipodi:absref="/Users/manu/Downloads/Visage_img0.png" /></mask><clipPath
       clipPathUnits="userSpaceOnUse"
       id="clipPath3422"><path
         d="m 0,1024 1024,0 L 1024,0 0,0 0,1024 Z"
         id="path3424"
         inkscape:connector-curvature="0" /></clipPath><clipPath
       clipPathUnits="userSpaceOnUse"
       id="clipPath3466"><path
         d="m 0,1024 1024,0 L 1024,0 0,0 0,1024 Z"
         id="path3468"
         inkscape:connector-curvature="0" /></clipPath></defs><sodipodi:namedview
     pagecolor="#ffffff"
     bordercolor="#666666"
     borderopacity="1"
     objecttolerance="10"
     gridtolerance="10"
     guidetolerance="10"
     inkscape:pageopacity="0"
     inkscape:pageshadow="2"
     inkscape:window-width="1427"
     inkscape:window-height="754"
     id="namedview3392"
     showgrid="false"
     inkscape:zoom="0.33477087"
     inkscape:cx="714.77606"
     inkscape:cy="46.986835"
     inkscape:window-x="21"
     inkscape:window-y="0"
     inkscape:window-maximized="0"
     inkscape:current-layer="g3398"
     fit-margin-top="0"
     fit-margin-left="0"
     fit-margin-right="0"
     fit-margin-bottom="0" /><g
     id="g3398"
     inkscape:groupmode="layer"
     inkscape:label="Visage"
     transform="matrix(1.25,0,0,-1.25,-27.780869,1074.1064)"><g
       id="g3426"
       transform="translate(357.71019,391.54154)"
       style="stroke:none;fill:none"><path
         d="m 0,0 c -5.862,0 -11.625,1.107 -17.129,3.291 -11.521,4.572 -20.57,13.35 -25.479,24.716 -4.909,11.362 -5.092,23.953 -0.518,35.452 7.067,17.765 24.003,29.242 43.146,29.242 5.861,0 11.624,-1.107 17.127,-3.291 C 28.669,84.838 37.718,76.061 42.627,64.694 47.535,53.332 47.719,40.741 43.145,29.242 36.078,11.478 19.143,0 0.002,0 L 0,0 Z"
         style="fill:none;fill-opacity:1;fill-rule:evenodd;stroke:none"
         id="path3428"
         inkscape:connector-curvature="0" /></g><g
       id="g3434"
       transform="translate(401.74239,710.80864)"
       style="stroke:none;fill:none"><path
         d="m 0,0 c -8.975,0 -17.794,1.686 -26.213,5.008 -17.684,6.98 -31.55,20.389 -39.04,37.756 -7.432,17.23 -7.687,36.312 -0.72,53.732 10.807,27.021 36.715,44.481 66.002,44.481 8.974,0 17.792,-1.685 26.213,-5.009 17.685,-6.98 31.55,-20.388 39.041,-37.755 C 72.714,80.982 72.97,61.9 66.003,44.481 55.195,17.46 29.288,0 0.004,0 L 0,0 Z"
         style="fill:none;fill-opacity:1;fill-rule:evenodd;stroke:none"
         id="path3436"
         inkscape:connector-curvature="0" /></g><g
       id="g3442"
       transform="translate(89.222894,626.77244)"
       style="stroke:none;fill:none"><path
         d="m 0,0 c -7.142,0 -14.163,1.341 -20.868,3.985 -14.077,5.552 -25.11,16.214 -31.065,30.021 -5.9,13.68 -6.101,28.83 -0.565,42.659 8.598,21.481 29.218,35.361 52.531,35.361 7.142,0 14.163,-1.341 20.868,-3.985 C 34.978,102.489 46.01,91.828 51.965,78.02 57.866,64.34 58.066,49.189 52.531,35.361 43.933,13.881 23.312,0 0.001,0 L 0,0 Z"
         style="fill:none;fill-opacity:1;fill-rule:evenodd;stroke:none"
         id="path3444"
         inkscape:connector-curvature="0" /></g><g
       id="g4165"
       style="fill:#2b0000"><g
         style="fill:#2b0000;fill-opacity:1;stroke:none"
         transform="translate(143.16769,619.85404)"
         id="g3410"><path
           inkscape:connector-curvature="0"
           id="path3412"
           style="fill:#2b0000;fill-opacity:1;fill-rule:evenodd;stroke:none"
           d="m 0,0 -0.004,-1.033 156.149,-147.643 4.404,23.079 L 0,0 Z" /></g><g
         style="fill:#2b0000;fill-opacity:1;stroke:none"
         transform="translate(308.57909,762.86664)"
         id="g3414"><path
           inkscape:connector-curvature="0"
           id="path3416"
           style="fill:#2b0000;fill-opacity:1;fill-rule:evenodd;stroke:none"
           d="M 0,0 -156.896,-35.839 -144.334,-48.201 0.643,-0.433 0,0 Z" /></g><g
         style="fill:#2b0000;fill-opacity:1;stroke:none"
         transform="translate(357.73009,493.24334)"
         id="g3430"><path
           inkscape:connector-curvature="0"
           id="path3432"
           style="fill:#2b0000;fill-opacity:1;fill-rule:nonzero;stroke:none"
           d="m 0,0 c -22.039,0 -42.876,-13.218 -51.508,-34.916 -11.299,-28.401 2.598,-60.574 31.04,-71.86 6.713,-2.664 13.638,-3.926 20.447,-3.926 22.039,0 42.876,13.218 51.508,34.916 11.299,28.401 -2.598,60.573 -31.04,71.86 C 13.734,-1.262 6.809,0 0,0 m 0,-18 c 4.719,0 9.364,-0.894 13.808,-2.657 9.287,-3.686 16.581,-10.76 20.537,-19.919 3.954,-9.152 4.102,-19.294 0.417,-28.557 -5.696,-14.318 -19.349,-23.57 -34.783,-23.57 -4.719,0 -9.365,0.895 -13.808,2.658 -9.287,3.685 -16.581,10.759 -20.537,19.918 -3.954,9.153 -4.102,19.295 -0.417,28.557 C -29.087,-27.252 -15.434,-18 0,-18" /></g><g
         style="fill:#2b0000;fill-opacity:1;stroke:none"
         transform="translate(401.77209,859.28514)"
         id="g3438"><path
           inkscape:connector-curvature="0"
           id="path3440"
           style="fill:#2b0000;fill-opacity:1;fill-rule:nonzero;stroke:none"
           d="m 0,0 c -31.22,0 -60.739,-18.624 -72.966,-49.196 -16.006,-40.016 3.68,-85.347 43.97,-101.249 9.51,-3.753 19.321,-5.532 28.966,-5.532 31.221,0 60.739,18.624 72.967,49.196 C 88.942,-66.765 69.256,-21.434 28.965,-5.532 19.456,-1.779 9.645,0 0,0 m 0,-15 c 8.027,0 15.919,-1.509 23.458,-4.485 15.817,-6.242 28.214,-18.228 34.909,-33.75 6.635,-15.384 6.863,-32.422 0.642,-47.976 -4.78,-11.95 -12.979,-22.021 -23.711,-29.123 -10.521,-6.963 -22.737,-10.643 -35.328,-10.643 -8.026,0 -15.919,1.509 -23.459,4.485 -15.816,6.242 -28.213,18.228 -34.907,33.749 -6.636,15.385 -6.864,32.423 -0.643,47.977 4.78,11.95 12.979,22.021 23.711,29.123 C -24.806,-18.68 -12.59,-15 0,-15" /></g><g
         style="fill:#2b0000;fill-opacity:1;stroke:none"
         transform="translate(89.256094,749.29814)"
         id="g3446"><path
           inkscape:connector-curvature="0"
           id="path3448"
           style="fill:#2b0000;fill-opacity:1;fill-rule:nonzero;stroke:none"
           d="m 0,0 c -26.646,0 -51.842,-15.885 -62.28,-41.959 -13.661,-34.129 3.14,-72.789 37.527,-86.35 8.116,-3.2 16.487,-4.717 24.719,-4.717 26.646,0 51.843,15.886 62.28,41.959 13.661,34.129 -3.14,72.789 -37.527,86.35 C 16.603,-1.516 8.232,0 0,0 m 0,-21 c 5.817,0 11.542,-1.094 17.015,-3.253 11.459,-4.519 20.435,-13.188 25.276,-24.412 4.785,-11.095 4.948,-23.382 0.459,-34.598 -3.457,-8.634 -9.386,-15.911 -17.149,-21.044 -7.636,-5.05 -16.501,-7.718 -25.635,-7.718 -5.817,0 -11.542,1.094 -17.015,3.252 -11.458,4.519 -20.435,13.189 -25.276,24.412 -4.785,11.096 -4.948,23.382 -0.459,34.598 3.457,8.634 9.387,15.912 17.149,21.044 C -17.999,-23.669 -9.134,-21 0,-21" /></g><g
         style="fill:#2b0000;fill-opacity:1;stroke:none"
         transform="translate(368.25119,662.28664)"
         id="g3450"><path
           inkscape:connector-curvature="0"
           id="path3452"
           style="fill:#2b0000;fill-opacity:1;fill-rule:evenodd;stroke:none"
           d="m 0,0 -33,-133 28,-24 33,14 3,138 -31,5 z" /></g><g
         style="fill:#2b0000;fill-opacity:1;stroke:none"
         transform="translate(360.25119,696.28664)"
         id="g3454"><path
           inkscape:connector-curvature="0"
           id="path3456"
           style="fill:#2b0000;fill-opacity:1;fill-rule:evenodd;stroke:none"
           d="M 0,0 9,-30 40,-35 56,-9 0,0 Z" /></g><g
         style="fill:#2b0000;fill-opacity:1;stroke:none"
         transform="translate(367.78609,814.20914)"
         id="g3458"><path
           inkscape:connector-curvature="0"
           id="path3460"
           style="fill:#2b0000;fill-opacity:1;fill-rule:evenodd;stroke:none"
           d="m 0,0 c -10.369,-10.911 -14.923,-24.897 -13.615,-37.718 3.806,11.669 10.314,22.861 19.538,32.577 8.988,9.447 19.56,16.439 30.758,20.944 C 23.827,16.126 10.229,10.763 0,0" /></g></g><g
       id="g3462"
       transform="matrix(2.3521092,0,0,2.3521092,-116.31937,104.18718)"><g
         id="g3464"
         clip-path="url(#clipPath3466)"><g
           id="g3470"
           transform="translate(694.2278,219.4326)"><path
             d="m 0,0 0,1.782 c 0,5.075 1.268,9.044 3.807,11.907 2.537,2.86 6.939,4.293 13.204,4.293 5.724,0 9.64,-1.324 11.746,-3.969 2.106,-2.648 3.159,-6.885 3.159,-12.717 0,-3.025 -0.622,-4.916 -1.863,-5.67 -1.243,-0.757 -3.43,-1.134 -6.561,-1.134 l -15.391,0 c -3.025,0 -5.132,0.349 -6.319,1.053 C 0.592,-3.754 0,-2.268 0,0 m 5.832,-18.144 27.38,0.972 c 3.889,0.215 6.992,0.567 9.316,1.053 2.321,0.486 4.104,1.321 5.347,2.511 1.24,1.187 2.078,2.86 2.511,5.022 0.43,2.159 0.648,4.966 0.648,8.424 0,5.184 -0.567,9.826 -1.701,13.932 -1.134,4.103 -3.025,7.586 -5.671,10.449 -2.648,2.86 -6.103,5.047 -10.368,6.561 -4.268,1.511 -9.534,2.268 -15.797,2.268 -5.508,0 -10.586,-0.623 -15.229,-1.863 -4.645,-1.243 -8.667,-3.402 -12.07,-6.48 -3.402,-3.078 -6.05,-7.237 -7.938,-12.474 -1.891,-5.24 -2.836,-11.907 -2.836,-20.007 l 0,-9.072 c 0,-7.237 0.81,-13.393 2.431,-18.468 1.62,-5.078 4.131,-9.209 7.533,-12.393 3.402,-3.187 7.802,-5.508 13.204,-6.966 5.4,-1.458 11.827,-2.187 19.28,-2.187 5.508,0 10.206,0.324 14.095,0.972 3.888,0.648 6.911,1.564 9.072,2.754 1.079,0.648 1.945,1.701 2.593,3.159 0.648,1.458 0.972,3.103 0.972,4.941 0,2.592 -0.729,4.318 -2.188,5.184 -1.458,0.863 -2.997,1.134 -4.617,0.81 -2.268,-0.433 -4.86,-0.81 -7.776,-1.134 -2.917,-0.324 -6.157,-0.486 -9.721,-0.486 -8.749,0 -14.961,1.349 -18.632,4.05 -3.673,2.698 -5.508,7.019 -5.508,12.96 0,1.944 0.349,3.321 1.053,4.131 0.701,0.81 2.24,1.268 4.617,1.377 M -62.372,-28.35 c 0,-1.62 -0.081,-2.916 -0.244,-3.888 -0.162,-0.972 -0.567,-1.701 -1.215,-2.187 -0.648,-0.486 -1.594,-0.81 -2.835,-0.972 -1.243,-0.162 -2.944,-0.243 -5.103,-0.243 -4.537,0 -8.182,0.268 -10.936,0.81 -2.754,0.539 -4.86,1.701 -6.318,3.483 -1.459,1.782 -2.431,4.346 -2.917,7.695 -0.486,3.346 -0.729,7.776 -0.729,13.284 0,5.614 0.269,10.178 0.81,13.689 0.539,3.508 1.403,6.29 2.592,8.343 1.188,2.05 2.808,3.483 4.861,4.293 2.05,0.81 4.536,1.268 7.452,1.377 3.132,0 5.671,-0.081 7.615,-0.243 1.944,-0.162 3.428,-0.486 4.455,-0.972 1.026,-0.486 1.701,-1.215 2.025,-2.187 0.325,-0.972 0.487,-2.268 0.487,-3.888 l 0,-38.394 z m 18.874,57.105 c -1.567,1.349 -3.701,2.349 -6.4,2.997 -2.701,0.648 -5.832,1.025 -9.396,1.134 -3.565,0.106 -7.291,0.162 -11.179,0.162 -7.777,0 -14.447,-0.729 -20.009,-2.187 -5.564,-1.458 -10.125,-3.944 -13.69,-7.452 -3.564,-3.511 -6.184,-8.1 -7.857,-13.77 -1.676,-5.67 -2.511,-12.717 -2.511,-21.141 0,-8.1 0.729,-14.636 2.187,-19.602 1.458,-4.969 3.807,-8.829 7.047,-11.583 3.241,-2.754 7.425,-4.592 12.556,-5.508 5.129,-0.919 11.422,-1.377 18.875,-1.377 2.592,0 4.642,-0.056 6.156,-0.162 1.511,-0.109 2.673,-0.299 3.483,-0.567 0.81,-0.271 1.322,-0.623 1.539,-1.053 0.216,-0.433 0.325,-1.028 0.325,-1.782 l 0,-4.212 c 0,-3.564 -1.919,-6.181 -5.752,-7.857 -3.835,-1.673 -10.019,-2.511 -18.55,-2.511 -3.673,0 -7.266,0.19 -10.774,0.567 -3.511,0.38 -6.67,0.567 -9.478,0.567 -3.025,0 -4.536,-2.268 -4.536,-6.804 0,-2.159 0.673,-3.941 2.025,-5.346 1.349,-1.402 3.24,-2.511 5.67,-3.321 2.431,-0.81 5.291,-1.402 8.587,-1.782 3.293,-0.377 6.886,-0.567 10.774,-0.567 5.291,0 10.531,0.299 15.715,0.891 5.184,0.595 9.802,1.944 13.852,4.05 4.05,2.106 7.344,5.159 9.883,9.153 2.536,3.997 3.807,9.396 3.807,16.2 l 0,77.112 c 0,2.483 -0.785,4.399 -2.349,5.751 m -111.545,-62.451 c 0,-3.782 -0.784,-6.318 -2.349,-7.614 -1.567,-1.296 -4.617,-1.944 -9.154,-1.944 -3.349,0 -6.022,0.134 -8.019,0.405 -2,0.268 -3.564,0.835 -4.698,1.701 -1.135,0.863 -1.891,2.131 -2.269,3.807 -0.379,1.673 -0.567,3.913 -0.567,6.723 0,5.184 0.836,8.72 2.511,10.611 1.674,1.888 4.78,2.835 9.316,2.835 l 6.643,0 c 3.24,0 5.48,-0.486 6.723,-1.458 1.241,-0.972 1.863,-2.701 1.863,-5.184 l 0,-9.882 z m 12.88,60.588 c -2.754,2.159 -6.346,3.726 -10.774,4.698 -4.43,0.972 -9.829,1.458 -16.201,1.458 -3.673,0 -7.156,-0.162 -10.45,-0.486 -3.295,-0.324 -6.184,-0.947 -8.667,-1.863 -2.486,-0.919 -4.456,-2.134 -5.914,-3.645 -1.458,-1.514 -2.187,-3.402 -2.187,-5.67 0,-2.81 0.539,-4.754 1.62,-5.832 1.079,-1.081 2.322,-1.62 3.727,-1.62 0.215,0 0.405,0.025 0.567,0.081 0.162,0.053 0.349,0.081 0.567,0.081 2.592,0.539 5.561,0.972 8.91,1.296 3.347,0.324 6.587,0.486 9.721,0.486 3.671,0 6.587,-0.299 8.749,-0.891 2.159,-0.595 3.779,-1.405 4.86,-2.43 1.078,-1.028 1.754,-2.296 2.025,-3.807 0.269,-1.514 0.405,-3.134 0.405,-4.86 0,-3.564 -0.379,-5.86 -1.134,-6.885 -0.757,-1.028 -2.324,-1.648 -4.698,-1.863 l -13.771,-1.458 c -5.833,-0.648 -10.587,-1.595 -14.257,-2.835 -3.673,-1.243 -6.509,-2.944 -8.506,-5.103 -2,-2.162 -3.377,-4.754 -4.131,-7.776 -0.757,-3.025 -1.134,-6.642 -1.134,-10.854 0,-4.43 0.567,-8.156 1.701,-11.178 1.134,-3.025 3.05,-5.455 5.751,-7.29 2.699,-1.838 6.182,-3.159 10.45,-3.969 4.266,-0.81 9.584,-1.215 15.958,-1.215 4.319,0 8.531,0.028 12.637,0.081 4.104,0.056 7.777,0.405 11.017,1.053 3.24,0.648 5.858,1.701 7.858,3.159 1.997,1.458 2.997,3.536 2.997,6.237 l 0,51.03 c 0,5.184 -0.595,9.583 -1.782,13.203 -1.19,3.617 -3.16,6.505 -5.914,8.667 m -79.224,-44.793 c -1.458,2.106 -3.377,4.184 -5.751,6.237 -2.377,2.05 -5.24,4.156 -8.587,6.318 -5.508,3.455 -9.371,6.29 -11.584,8.505 -2.215,2.212 -3.321,4.346 -3.321,6.399 0,2.592 0.836,4.455 2.511,5.589 1.674,1.134 4.78,1.701 9.316,1.701 2.159,0 4.428,-0.081 6.805,-0.243 2.374,-0.162 4.751,-0.352 7.128,-0.567 2.483,-0.324 4.238,0.187 5.266,1.539 1.025,1.349 1.539,3.212 1.539,5.589 0,1.511 -0.218,2.86 -0.648,4.05 -0.433,1.187 -1.405,2.212 -2.917,3.078 -1.62,0.863 -4.078,1.539 -7.371,2.025 -3.296,0.486 -7.643,0.729 -13.042,0.729 -3.997,0 -7.805,-0.324 -11.422,-0.972 -3.62,-0.648 -6.805,-1.81 -9.559,-3.483 -2.754,-1.676 -4.969,-4.05 -6.642,-7.128 -1.676,-3.078 -2.511,-7.047 -2.511,-11.907 0,-4.754 1.321,-8.938 3.969,-12.555 2.645,-3.62 7.263,-7.589 13.852,-11.907 3.131,-2.162 5.696,-4.05 7.695,-5.67 1.998,-1.62 3.565,-3.106 4.699,-4.455 1.134,-1.352 1.916,-2.62 2.349,-3.807 0.43,-1.19 0.648,-2.377 0.648,-3.564 0,-1.838 -0.352,-3.296 -1.053,-4.374 -0.704,-1.081 -1.648,-1.919 -2.835,-2.511 -1.19,-0.595 -2.592,-1 -4.213,-1.215 -1.62,-0.218 -3.349,-0.324 -5.184,-0.324 -2.701,0 -5.265,0.106 -7.695,0.324 -2.431,0.215 -4.78,0.486 -7.048,0.81 -2.268,0.324 -3.916,-0.218 -4.941,-1.62 -1.028,-1.405 -1.54,-3.187 -1.54,-5.346 0,-3.888 1.459,-6.427 4.375,-7.614 3.994,-1.726 10.369,-2.592 19.117,-2.592 4.752,0 9.126,0.38 13.123,1.134 3.995,0.754 7.453,2.078 10.369,3.969 2.916,1.888 5.184,4.399 6.805,7.533 1.62,3.131 2.43,7.072 2.43,11.826 0,2.807 -0.324,5.399 -0.972,7.776 -0.648,2.374 -1.702,4.617 -3.16,6.723 m -74.199,49.086 c -1.028,0.377 -2.162,0.648 -3.403,0.81 -1.243,0.162 -2.511,0.243 -3.807,0.243 -1.296,0 -2.567,-0.081 -3.807,-0.243 -1.243,-0.162 -2.377,-0.433 -3.403,-0.81 -1.027,-0.38 -1.863,-0.947 -2.511,-1.701 -0.648,-0.757 -0.972,-1.782 -0.972,-3.078 l 0,-76.464 c 0,-1.19 0.324,-2.162 0.972,-2.916 0.648,-0.757 1.484,-1.352 2.511,-1.782 1.026,-0.433 2.16,-0.729 3.403,-0.891 1.24,-0.162 2.511,-0.243 3.807,-0.243 1.296,0 2.564,0.081 3.807,0.243 1.241,0.162 2.375,0.458 3.403,0.891 1.025,0.43 1.863,1.025 2.511,1.782 0.648,0.754 0.972,1.726 0.972,2.916 l 0,76.464 c 0,1.296 -0.324,2.321 -0.972,3.078 -0.648,0.754 -1.486,1.321 -2.511,1.701 m 2.835,32.157 c -0.866,0.754 -2.106,1.268 -3.727,1.539 -1.62,0.268 -3.726,0.405 -6.318,0.405 -2.486,0 -4.536,-0.137 -6.156,-0.405 -1.621,-0.271 -2.917,-0.81 -3.889,-1.62 -0.972,-0.81 -1.648,-1.944 -2.025,-3.402 -0.38,-1.458 -0.567,-3.377 -0.567,-5.751 0,-2.162 0.187,-3.863 0.567,-5.103 0.377,-1.243 1.053,-2.243 2.025,-2.997 0.972,-0.757 2.268,-1.243 3.889,-1.458 1.62,-0.218 3.67,-0.324 6.156,-0.324 2.483,0 4.508,0.134 6.075,0.405 1.565,0.268 2.808,0.782 3.727,1.539 0.916,0.754 1.564,1.863 1.944,3.321 0.377,1.458 0.567,3.374 0.567,5.751 0,2.05 -0.162,3.726 -0.486,5.022 -0.324,1.296 -0.919,2.321 -1.782,3.078 m -40.42,-9.639 c -2.54,1.24 -5.322,1.863 -8.344,1.863 -2.268,0 -4.268,-0.38 -5.995,-1.134 -1.729,-0.757 -2.809,-2.377 -3.24,-4.86 -0.542,-3.025 -1.271,-6.779 -2.187,-11.259 -0.919,-4.483 -1.944,-9.29 -3.078,-14.418 -1.134,-5.131 -2.296,-10.424 -3.483,-15.876 -1.19,-5.455 -2.35,-10.72 -3.484,-15.795 -1.134,-5.078 -2.215,-9.748 -3.24,-14.013 -1.028,-4.268 -1.919,-7.751 -2.673,-10.449 -0.542,-1.729 -1.053,-2.782 -1.539,-3.159 -0.486,-0.38 -1,-0.567 -1.539,-0.567 -0.648,0 -1.243,0.187 -1.782,0.567 -0.542,0.377 -1.081,1.43 -1.621,3.159 -0.757,2.698 -1.648,6.181 -2.673,10.449 -1.028,4.265 -2.134,8.91 -3.321,13.932 -1.19,5.022 -2.377,10.287 -3.564,15.795 -1.19,5.508 -2.35,10.826 -3.484,15.957 -1.134,5.128 -2.187,9.935 -3.159,14.418 -0.972,4.48 -1.729,8.234 -2.268,11.259 -0.433,2.483 -1.539,4.103 -3.321,4.86 -1.782,0.754 -3.808,1.134 -6.076,1.134 -3.349,0 -6.237,-0.623 -8.667,-1.863 -2.431,-1.243 -3.646,-2.944 -3.646,-5.103 0,-1.405 0.431,-4.374 1.296,-8.91 0.864,-4.536 2.026,-9.91 3.484,-16.119 1.458,-6.212 3.078,-12.879 4.86,-20.007 1.782,-7.128 3.564,-14.094 5.347,-20.898 1.782,-6.804 3.508,-13.041 5.184,-18.711 1.673,-5.67 3.05,-10.072 4.131,-13.203 0.648,-1.729 1.592,-3.078 2.835,-4.05 1.241,-0.972 2.699,-1.701 4.375,-2.187 1.673,-0.486 3.536,-0.782 5.589,-0.891 2.051,-0.106 4.157,-0.162 6.319,-0.162 2.159,0 4.212,0.056 6.156,0.162 1.944,0.109 3.726,0.405 5.346,0.891 1.621,0.486 3.023,1.215 4.213,2.187 1.187,0.972 2.106,2.268 2.754,3.888 1.078,3.131 2.455,7.533 4.131,13.203 1.674,5.67 3.403,11.907 5.185,18.711 1.782,6.804 3.564,13.795 5.346,20.979 1.782,7.181 3.402,13.876 4.86,20.088 1.459,6.209 2.618,11.583 3.484,16.119 0.863,4.536 1.296,7.505 1.296,8.91 0,2.159 -1.271,3.86 -3.807,5.103"
             style="fill:#231f20;fill-opacity:1;fill-rule:evenodd;stroke:none"
             id="path3472"
             inkscape:connector-curvature="0" /></g></g></g></g></svg>